<svg xmlns="http://www.w3.org/2000/svg" xmlns:xlink="http://www.w3.org/1999/xlink" width="500" zoomAndPan="magnify" viewBox="0 0 375 374.999991" height="500" preserveAspectRatio="xMidYMid meet" version="1.0"><defs><clipPath id="2d8cb51023"><path d="M 123.707031 101.058594 L 251.207031 101.058594 L 251.207031 251.050781 L 123.707031 251.050781 Z M 123.707031 101.058594 " clip-rule="nonzero"/></clipPath><clipPath id="fac55e8155"><path d="M 149.625 117.835938 L 225.375 117.835938 L 225.375 249.835938 L 149.625 249.835938 Z M 149.625 117.835938 " clip-rule="nonzero"/></clipPath></defs><g clip-path="url(#2d8cb51023)"><path stroke-linecap="butt" transform="matrix(0.75, 0, 0, 0.75, 123.706067, 101.05862)" fill="none" stroke-linejoin="miter" d="M 0.00128596 -0.0000346851 L 170.110672 -0.0000346851 L 170.110672 199.989562 L 0.00128596 199.989562 Z M 0.00128596 -0.0000346851 " stroke="#2c3232" stroke-width="8" stroke-opacity="1" stroke-miterlimit="4"/></g><g clip-path="url(#fac55e8155)"><path fill="#2c3232" d="M 199.460938 169.660156 L 199.460938 143.101562 L 175.539062 165.457031 L 175.539062 243.914062 L 190.121094 243.914062 L 190.121094 178.390625 Z M 149.640625 249.566406 L 149.640625 150.753906 L 184.878906 117.835938 L 184.878906 149.003906 L 205.113281 130.101562 L 205.113281 164.375 L 225.347656 145.472656 L 225.347656 249.566406 C 200.121094 249.566406 174.882812 249.566406 149.640625 249.566406 Z M 179.214844 154.285156 L 179.214844 130.851562 L 155.304688 153.191406 L 155.304688 243.902344 L 169.890625 243.902344 L 169.890625 163.019531 Z M 219.695312 158.488281 L 195.773438 180.828125 L 195.773438 243.914062 L 219.695312 243.914062 Z M 219.695312 158.488281 " fill-opacity="1" fill-rule="nonzero"/></g></svg>